<?xml version="1.0" ?>
<!DOCTYPE svg  PUBLIC '-//W3C//DTD SVG 1.0//EN'  'http://www.w3.org/TR/2001/REC-SVG-20010904/DTD/svg10.dtd'>
<!-- Uploaded to: SVG Repo, www.svgrepo.com, Generator: SVG Repo Mixer Tools -->
<svg fill="#000000" width="800px" height="800px" viewBox="0 0 100 100" version="1.0" xml:space="preserve" xmlns="http://www.w3.org/2000/svg" xmlns:xlink="http://www.w3.org/1999/xlink">
<g id="_x31_"/>
<g id="_x32_"/>
<g id="_x33_"/>
<g id="_x34_"/>
<g id="_x35_"/>
<g id="_x36_"/>
<g id="_x37_"/>
<g id="_x38_"/>
<g id="_x39_"/>
<g id="_x31_0"/>
<g id="_x31_1"/>
<g id="_x31_2"/>
<g id="_x31_3"/>
<g id="_x31_4"/>
<g id="_x31_5"/>
<g id="_x31_6"/>
<g id="_x31_7"/>
<g id="_x31_8"/>
<g id="_x31_9">
<path d="M50,89.6c-16.3,0-29.5-13.2-29.5-29.5c0-11,6.2-21.1,15.9-26.2V20.5c0-1.1,0.9-2,2-2h23.2c1.1,0,2,0.9,2,2v13.4   c9.7,5.1,15.9,15.2,15.9,26.2C79.5,76.4,66.3,89.6,50,89.6z M40.4,22.5v12.7c0,0.8-0.5,1.5-1.2,1.8c-9,4.2-14.8,13.3-14.8,23.1   c0,14.1,11.4,25.5,25.5,25.5s25.5-11.4,25.5-25.5c0-9.9-5.8-19-14.8-23.1c-0.7-0.3-1.2-1-1.2-1.8V22.5H40.4z M63.2,22.5H36.8   c-3.3,0-6-2.7-6-6c0-3.3,2.7-6,6-6h26.4c3.3,0,6,2.7,6,6C69.2,19.8,66.5,22.5,63.2,22.5z M36.8,14.4c-1.1,0-2,0.9-2,2   c0,1.1,0.9,2,2,2h26.4c1.1,0,2-0.9,2-2c0-1.1-0.9-2-2-2H36.8z M47.7,59.7c0.4-0.4,0.6-0.9,0.6-1.4c0-0.5-0.2-1-0.6-1.4   c-0.7-0.7-2.1-0.7-2.8,0c-0.4,0.4-0.6,0.9-0.6,1.4c0,0.5,0.2,1,0.6,1.4c0.4,0.4,0.9,0.6,1.4,0.6C46.8,60.3,47.3,60,47.7,59.7z    M55.7,59.7c0.4-0.4,0.6-0.9,0.6-1.4c0-0.5-0.2-1-0.6-1.4c-0.7-0.7-2.1-0.7-2.8,0c-0.4,0.4-0.6,0.9-0.6,1.4c0,0.5,0.2,1,0.6,1.4   c0.4,0.4,0.9,0.6,1.4,0.6S55.3,60,55.7,59.7z M50,40.8c-8.3,0-15,6.7-15,15c0,4.2,1.8,8.2,4.8,11v6.9c0,1.1,0.9,2,2,2h16.3   c1.1,0,2-0.9,2-2v-6.9C63.2,64,65,60,65,55.8C65,47.6,58.3,40.8,50,40.8z M56.9,64.4c-0.5,0.4-0.7,1-0.7,1.6v5.8h-1v-2.4   c0-1.1-0.9-2-2-2s-2,0.9-2,2v2.4h-2v-2.4c0-1.1-0.9-2-2-2s-2,0.9-2,2v2.4h-1.3v-5.8c0-0.6-0.3-1.2-0.7-1.6   c-2.6-2.1-4.1-5.2-4.1-8.5c0-6.1,4.9-11,11-11s11,4.9,11,11C61,59.1,59.5,62.3,56.9,64.4z"/>
</g>
<g id="_x32_0"/>
<g id="_x32_1"/>
<g id="_x32_2"/>
<g id="_x32_3"/>
</svg>