<?xml version="1.0" standalone="no"?>
<!DOCTYPE svg PUBLIC "-//W3C//DTD SVG 20010904//EN"
 "http://www.w3.org/TR/2001/REC-SVG-20010904/DTD/svg10.dtd">
<svg version="1.0" xmlns="http://www.w3.org/2000/svg"
 width="1144.000000pt" height="618.000000pt" viewBox="0 0 1144.000000 618.000000"
 preserveAspectRatio="xMidYMid meet">

<g transform="translate(0.000000,618.000000) scale(0.100000,-0.100000)"
fill="#000000" stroke="none">
<path d="M4960 4064 c-100 -34 -134 -56 -179 -118 -21 -28 -64 -82 -96 -121
-32 -38 -70 -98 -86 -132 -41 -91 -79 -201 -79 -228 0 -42 -43 -65 -121 -65
-58 0 -72 -4 -99 -26 -44 -37 -58 -70 -70 -165 -6 -46 -16 -113 -22 -149 -15
-78 -15 -458 -1 -581 7 -64 16 -95 34 -120 36 -52 137 -148 208 -201 52 -38
73 -48 105 -48 61 -1 159 -27 173 -46 7 -9 15 -37 18 -63 7 -49 10 -57 105
-231 34 -63 73 -139 86 -168 36 -81 62 -112 117 -138 52 -24 77 -59 77 -110 0
-13 4 -32 9 -42 5 -9 16 -32 23 -49 7 -18 16 -33 19 -33 4 0 9 -12 12 -27 10
-43 16 -48 110 -81 91 -33 152 -39 262 -23 l50 6 -48 13 c-26 7 -55 21 -65 32
-19 23 -49 26 -71 6 -14 -12 -21 -12 -56 5 -22 11 -48 30 -57 42 -21 27 -23
83 -3 94 12 7 105 120 105 128 0 17 -39 35 -74 35 -23 0 -46 3 -49 6 -11 12
13 44 33 44 16 0 20 7 20 35 l0 35 63 2 c127 4 127 4 157 37 37 40 88 42 141
5 l37 -26 44 20 c24 10 68 40 96 66 29 25 59 46 67 46 14 0 55 -50 55 -67 0
-5 6 -18 14 -29 14 -18 15 -18 40 11 14 17 29 46 32 65 4 19 16 50 27 69 16
27 18 37 9 52 -7 10 -12 26 -12 34 0 27 -38 92 -73 127 -41 40 -76 129 -70
178 3 27 2 31 -6 20 -8 -11 -13 -12 -19 -3 -4 6 -19 9 -34 6 -32 -6 -42 -36
-24 -77 8 -17 21 -57 31 -89 13 -45 24 -61 47 -73 23 -12 29 -21 26 -42 -3
-27 -7 -29 -60 -31 -18 -1 -28 -7 -28 -16 0 -20 -13 -19 -40 5 -30 26 -36 25
-52 -7 -13 -27 -16 -28 -77 -24 -50 2 -62 0 -59 -10 3 -9 17 -13 37 -11 37 3
52 -21 28 -45 -15 -16 -42 -9 -32 8 12 19 -10 8 -37 -18 -25 -24 -31 -26 -49
-15 -18 11 -24 11 -39 -3 -15 -13 -31 -15 -88 -10 -79 8 -83 10 -100 48 -10
24 -14 26 -32 15 -16 -10 -23 -10 -36 4 -14 14 -15 20 -4 32 16 20 39 20 46 1
5 -12 9 -12 30 2 17 11 37 14 65 10 48 -6 69 -1 69 19 0 8 10 14 25 14 31 0
33 27 5 63 -24 30 -24 34 -5 53 29 29 29 63 1 89 -14 13 -26 29 -26 34 0 6
-11 13 -24 17 -23 6 -56 42 -56 62 0 5 11 21 25 34 44 44 136 43 174 -1 9 -11
37 -29 61 -42 25 -13 48 -27 51 -32 4 -6 14 -7 23 -4 12 5 16 20 16 56 0 27
-4 53 -10 56 -5 3 -10 15 -10 26 0 10 -4 19 -10 19 -5 0 -10 7 -10 15 0 18 46
20 57 3 4 -7 25 -21 45 -32 20 -10 48 -31 63 -46 l27 -28 51 20 c46 17 168 48
191 48 4 0 6 7 2 15 -7 20 30 29 119 29 88 0 148 -17 163 -46 7 -13 16 -30 22
-38 5 -8 14 -34 20 -57 7 -26 17 -43 25 -43 8 0 15 -4 15 -10 0 -5 -7 -7 -15
-3 -13 4 -15 -2 -13 -30 1 -20 -1 -39 -5 -43 -4 -4 -7 6 -7 22 -1 52 -19 2
-31 -83 -5 -43 -12 -90 -14 -105 -4 -27 8 -38 20 -19 3 5 29 8 58 5 28 -3 118
-7 199 -10 l148 -5 56 53 c31 29 72 76 90 104 18 29 39 58 46 65 48 50 103
153 129 242 16 54 35 108 44 120 8 12 15 38 15 58 0 20 5 50 11 66 7 21 7 72
0 164 -9 118 -13 140 -40 193 -17 32 -31 67 -31 77 0 19 -51 39 -101 39 -49 0
-59 18 -68 120 -4 52 -13 105 -19 117 -7 12 -12 30 -12 40 0 32 -52 151 -79
181 -15 16 -26 33 -24 39 2 5 -3 16 -12 23 -8 7 -15 17 -15 22 0 14 -81 128
-91 128 -4 0 -24 23 -45 51 -47 64 -166 167 -202 175 -15 3 -36 10 -47 15 -32
17 -82 45 -108 62 -13 8 -63 27 -111 42 -80 24 -96 26 -184 20 -54 -4 -122
-15 -152 -25 -124 -39 -248 -36 -442 11 -63 16 -115 19 -280 19 -191 0 -207
-2 -278 -26z m1020 -1075 c49 -13 83 -41 74 -62 -3 -9 -15 -17 -27 -17 -11 0
-34 -4 -51 -9 -17 -5 -51 -15 -76 -22 -25 -8 -56 -19 -70 -26 -14 -7 -32 -13
-40 -13 -9 0 -21 -5 -28 -12 -15 -15 -16 -38 -2 -38 22 0 48 -40 54 -83 8 -50
-7 -71 -28 -41 -12 16 -28 20 -81 23 -33 2 -56 27 -62 66 -5 29 -3 36 6 30 10
-6 11 -3 1 14 -6 12 -9 27 -6 34 3 8 5 6 5 -3 1 -13 21 -27 69 -47 8 -3 12 4
12 20 0 19 -6 26 -30 30 -21 5 -31 14 -36 32 -9 35 1 55 36 68 17 6 30 17 30
23 0 12 21 24 54 31 10 2 26 8 35 13 17 11 102 5 161 -11z m288 -203 c35 -22
40 -29 30 -40 -9 -9 -19 -11 -30 -5 -9 5 -35 9 -57 9 -22 0 -42 4 -46 9 -3 5
-30 13 -60 16 -30 4 -55 11 -55 15 0 12 82 29 130 26 28 -2 61 -13 88 -30z
m96 -81 c8 -8 21 -15 29 -15 8 0 22 -9 32 -20 10 -11 24 -20 30 -20 30 0 34
-86 7 -120 -16 -19 -22 -21 -40 -11 -25 13 -52 60 -52 91 0 11 -4 20 -10 20
-5 0 -10 9 -10 20 0 10 -9 24 -20 30 -11 6 -20 17 -20 25 0 19 34 19 54 0z
m780 -154 c-5 -22 -10 -29 -17 -22 -7 7 -7 19 2 37 15 34 23 26 15 -15z
m-1014 -17 c0 -39 -49 -41 -91 -5 -19 16 -19 16 8 22 57 11 83 6 83 -17z m984
-99 c-4 -8 -10 -15 -15 -15 -5 0 -9 7 -9 15 0 8 7 15 15 15 9 0 12 -6 9 -15z
m-1984 -195 c9 0 22 -11 30 -24 11 -21 10 -27 -4 -41 -9 -9 -16 -21 -16 -26 0
-6 -8 -9 -17 -7 -14 2 -17 11 -15 36 2 18 -1 32 -7 32 -6 0 -11 12 -11 27 0
21 3 24 12 15 7 -7 19 -12 28 -12z m-123 -241 c5 -27 69 -87 86 -81 15 5 18
-27 4 -50 -8 -13 -18 -50 -22 -82 -6 -56 -26 -101 -50 -118 -5 -4 -24 7 -42
24 -36 35 -52 89 -58 201 -4 68 10 121 38 139 18 11 38 -4 44 -33z"/>
<path d="M5653 2104 c-7 -19 13 -34 45 -34 31 0 28 28 -4 40 -33 13 -34 13
-41 -6z"/>
<path d="M6445 1810 c-3 -5 -1 -10 4 -10 6 0 11 5 11 10 0 6 -2 10 -4 10 -3 0
-8 -4 -11 -10z"/>
<path d="M6430 1770 c0 -5 5 -10 11 -10 5 0 7 5 4 10 -3 6 -8 10 -11 10 -2 0
-4 -4 -4 -10z"/>
<path d="M6298 1593 c-9 -2 -24 -15 -32 -29 -12 -17 -26 -24 -49 -24 -18 0
-46 -4 -62 -9 -38 -10 -67 0 -83 30 -12 22 -18 24 -85 22 -118 -3 -162 -25
-229 -115 -35 -45 -42 -133 -14 -154 20 -14 40 -87 31 -115 -4 -11 -3 -19 0
-19 28 0 163 88 239 154 50 45 116 100 146 123 56 43 169 143 160 142 -3 -1
-13 -3 -22 -6z"/>
</g>
</svg>
