<?xml version="1.0" ?>
<!DOCTYPE svg  PUBLIC '-//W3C//DTD SVG 1.0//EN'  'http://www.w3.org/TR/2001/REC-SVG-20010904/DTD/svg10.dtd'>
<!-- Uploaded to: SVG Repo, www.svgrepo.com, Generator: SVG Repo Mixer Tools -->
<svg fill="#000000" width="800px" height="800px" viewBox="0 0 100 100" version="1.0" xml:space="preserve" xmlns="http://www.w3.org/2000/svg" xmlns:xlink="http://www.w3.org/1999/xlink">
<g id="_x31_"/>
<g id="_x32_"/>
<g id="_x33_"/>
<g id="_x34_"/>
<g id="_x35_"/>
<g id="_x36_"/>
<g id="_x37_"/>
<g id="_x38_"/>
<g id="_x39_"/>
<g id="_x31_0"/>
<g id="_x31_1"/>
<g id="_x31_2"/>
<g id="_x31_3"/>
<g id="_x31_4"/>
<g id="_x31_5"/>
<g id="_x31_6"/>
<g id="_x31_7"/>
<g id="_x31_8"/>
<g id="_x31_9"/>
<g id="_x32_0"/>
<g id="_x32_1">
<path d="M45,32.1h-8.4c-0.7,0-1.4-0.4-1.7-1s-0.4-1.4,0-2l4.2-7.3c0.4-0.6,1-1,1.7-1s1.4,0.4,1.7,1l4.2,7.3c0.4,0.6,0.4,1.4,0,2   C46.3,31.7,45.7,32.1,45,32.1z M40.1,28.1h1.4l-0.7-1.3L40.1,28.1z M63.5,32.1h-8.4c-0.7,0-1.4-0.4-1.7-1c-0.4-0.6-0.4-1.4,0-2   l4.2-7.3c0.4-0.6,1-1,1.7-1s1.4,0.4,1.7,1l4.2,7.3c0.4,0.6,0.4,1.4,0,2C64.9,31.7,64.3,32.1,63.5,32.1z M58.6,28.1h1.4l-0.7-1.3   L58.6,28.1z M71.5,31.3c0-11.9-9.6-21.5-21.5-21.5s-21.5,9.6-21.5,21.5c0,9,5.4,16.8,13.6,20l-0.4,3.8c-0.1,1,0.2,2.1,0.9,2.8   c0.7,0.8,1.7,1.2,2.7,1.2h1.6c-0.7,2.5-0.7,5.7,1.5,8.8c2,2.8,3.7,7,0.2,10.7c-4.4,4.7-0.4,11.2-0.2,11.5c0.4,0.6,1,0.9,1.7,0.9   c0.4,0,0.7-0.1,1.1-0.3c0.9-0.6,1.2-1.8,0.6-2.8c0,0-2.5-4.2-0.2-6.7c4.1-4.3,4.2-10.3,0.2-15.8c-1.9-2.6-1.1-5.2-0.5-6.5h3.6   c1,0,2-0.4,2.7-1.2c0.7-0.8,1-1.8,0.9-2.8l-0.4-3.8C66.1,48.1,71.5,40.2,71.5,31.3z M45.7,55.2l0.3-2.8c0.1,0,0.2,0,0.3,0   c0.4,0.1,0.9,0.1,1.3,0.2c0.2,0,0.4,0,0.5,0.1c0.6,0.1,1.2,0.1,1.9,0.1c0.6,0,1.2,0,1.9-0.1c0.2,0,0.4,0,0.5-0.1   c0.4,0,0.9-0.1,1.3-0.2c0.1,0,0.2,0,0.3,0l0.3,2.8H45.7z M55.1,48c-2.5,0.8-5.2,1-7.7,0.6c-0.9-0.1-1.7-0.3-2.5-0.6   c-7.4-2.3-12.4-9-12.4-16.7c0-9.6,7.9-17.5,17.5-17.5s17.5,7.8,17.5,17.5C67.5,39,62.5,45.7,55.1,48z M61.5,41.9   c0.9-0.7,1.1-2,0.4-2.8c-0.7-0.9-1.9-1-2.8-0.4c-0.2,0.1-0.9,0.5-2-0.1c-2.4-1.5-4.3-0.7-5.5-0.2c-0.5,0.2-0.9,0.4-1.3,0.4   c0,0,0,0,0,0c-0.4,0-1.1-0.3-1.7-0.5c-1.6-0.6-3.9-1.5-5.8,0.4c-0.3,0.3-1.4,0-1.9-0.3c-0.9-0.6-2.2-0.3-2.7,0.7   c-0.6,0.9-0.3,2.2,0.7,2.7c1.5,0.9,4.6,1.9,6.7-0.2c0.3-0.1,1.1,0.3,1.7,0.5c0.9,0.3,2,0.7,3.1,0.8c1.2,0,2.1-0.4,2.9-0.7   c1.1-0.4,1.3-0.5,1.9-0.1c1.2,0.7,2.3,1,3.3,1C59.6,43,60.8,42.4,61.5,41.9z"/>
</g>
<g id="_x32_2"/>
<g id="_x32_3"/>
</svg>